<svg width="17" height="18" viewBox="0 0 17 18" fill="none" xmlns="http://www.w3.org/2000/svg">
<path d="M16.8674 9.29718L9.02619 0.2605C8.95531 0.17873 8.86768 0.113151 8.76924 0.0682057C8.6708 0.0232607 8.56385 0 8.45564 0C8.34742 0 8.24047 0.0232607 8.14204 0.0682057C8.0436 0.113151 7.95597 0.17873 7.88509 0.2605L0.046212 9.29718C0.0225245 9.32442 0.00716547 9.35789 0.00196467 9.39361C-0.00323612 9.42933 0.0019404 9.46579 0.0168776 9.49866C0.0318147 9.53152 0.0558831 9.55939 0.0862156 9.57896C0.116548 9.59853 0.151867 9.60897 0.187964 9.60903H2.10161C2.21029 9.60903 2.31424 9.56178 2.38748 9.47909L7.55906 3.51843V16.8218C7.55906 16.9258 7.64411 17.0108 7.74806 17.0108H9.16558C9.26953 17.0108 9.35458 16.9258 9.35458 16.8218V3.51843L14.5262 9.47909C14.597 9.56178 14.701 9.60903 14.812 9.60903H16.7257C16.8863 9.60903 16.9737 9.42003 16.8674 9.29718Z" fill="#828282"/>
</svg>
