<svg width="125" height="38" viewBox="0 0 125 38" fill="none" xmlns="http://www.w3.org/2000/svg">
    <path
        d="M2.68 4.8V27.76L3.96 28.48L6.08 27.24C7.44 27.96 9.28 28.48 11.68 28.48C17.08 28.48 21.6 26.72 21.6 18.12C21.6 11.44 17.92 9.08 14.6 9.08C12.28 9.08 10.52 10.24 8.68 11.68V0.359998L8.4 0.199998L0.52 1.2V2.56L1.84 2.8C2.4 2.92 2.68 3.32 2.68 4.8ZM8.68 16.28C8.68 15.48 8.68 14.68 8.88 14.16C9.32 12.96 10.08 12.08 11.72 12.08C13.6 12.08 15.32 13.12 15.32 19.16C15.32 23.76 14.44 26.72 11.76 26.72C9.92 26.72 9 25.72 8.8 24.36C8.72 23.84 8.68 22.96 8.68 22.28V16.28ZM40.9184 18.6C42.3584 18.6 42.9984 18.16 42.9984 16.96C42.9984 13.76 41.8384 9.08 34.5184 9.08C27.6384 9.08 25.1584 13.56 25.1584 18.76C25.1584 23.8 27.3184 28.52 34.4384 28.48C38.9184 28.48 41.3984 26.32 42.7184 23L41.3184 22.2C40.1984 24.36 38.5584 25.48 36.3584 25.48C32.7584 25.48 31.4384 22.52 31.4384 18.6H40.9184ZM31.3984 16.72C31.3984 13.84 32.1984 10.88 34.4384 10.88C36.5184 10.88 36.9984 13.68 36.9984 15.48C36.9984 16.52 36.6784 16.72 35.8384 16.72H31.3984ZM62.5547 14.56C62.5547 12.2 61.8347 9.08 55.0347 9.08C49.3147 9.08 46.3147 11.36 46.3147 13.8C46.3147 15.56 48.8747 16.24 49.8747 16.24C50.6747 16.24 51.1547 15.6 51.4747 14.68C52.4747 11.24 53.6347 10.88 54.6347 10.88C55.7547 10.88 56.7147 11.56 56.7147 13.68V15.56C55.3547 16.44 52.2747 17.44 49.9147 18.2C46.8747 19.28 45.8347 20.8 45.8347 22.96C45.8347 25.8 47.7147 28.48 51.5547 28.48C53.9947 28.48 55.5547 27.2 56.9147 26.32C57.3547 27.6 58.1947 28.48 60.0347 28.48C62.3147 28.48 64.1947 27.88 65.3547 27.36L65.2747 26C64.7947 26 63.9547 25.96 63.5547 25.76C62.9147 25.48 62.5547 24.84 62.5547 23V14.56ZM56.7147 23.04C56.7147 24.92 55.5547 25.44 54.5947 25.44C53.2347 25.44 51.9147 24.36 51.9147 22.36C51.9147 20.6 52.4747 19.64 53.4747 19.04C54.5947 18.36 55.7947 17.92 56.7147 17.48V23.04ZM89.0466 28V26.56C86.9666 26.44 86.6466 26.28 86.6466 24.76V9.64L86.4066 9.4L78.5266 9.96V11.4L79.8066 11.6C80.3666 11.68 80.6866 12.28 80.6866 13.8V21.68C80.6866 22.28 80.6066 23.2 80.3666 23.76C80.1266 24.52 79.4466 25.4 77.8466 25.4C75.8866 25.4 74.8066 24.28 74.8066 21.32V9.64L74.5266 9.4L66.6466 9.96V11.4L67.9666 11.6C68.4866 11.68 68.8066 12.24 68.8066 13.8V22.84C68.8066 27.28 71.5666 28.48 74.2866 28.48C77.4866 28.48 79.3266 26.84 80.6866 25.96L80.9666 28H89.0466ZM102.638 11.48V9.56H98.8384V4.84H96.5184L93.0784 9.56H90.7584V11.48H92.8784V23.56C92.8784 26.92 95.3984 28.48 97.5984 28.48C99.0784 28.48 100.958 27.84 103.158 26.44L102.758 25.24C102.278 25.44 101.518 25.6 101.158 25.6C99.8384 25.6 98.8384 24.64 98.8384 22.16V11.48H102.638ZM117.236 9.56V11.04L119.076 11.28C119.596 11.32 119.836 11.68 119.636 12.36C118.796 15.76 117.556 19.6 116.436 22.88H116.356C115.156 19.8 113.396 15.96 112.236 12.52C111.996 11.76 112.116 11.36 112.676 11.28L114.076 11.04V9.56H103.276V11.04C104.876 11.28 105.196 11.16 105.916 12.76C107.516 16.28 110.636 23.4 112.796 28.92C113.076 29.64 113.396 31.08 113.076 31.76C112.716 32.68 112.396 33.08 111.636 33.08C111.196 33.08 110.716 32.84 110.316 32.52C109.556 31.96 109.196 31.68 108.556 31.68C107.276 31.68 106.036 33.4 106.036 34.88C106.036 36.4 107.676 37.28 109.076 37.28C111.836 37.28 113.556 35.72 115.596 30.36C117.756 24.64 120.156 17.96 121.916 13.64C122.716 11.68 122.796 11.24 124.876 11.04V9.56H117.236Z"
        fill="black" />
    <title id="logoTitle">Beauty</title>
    <desc id="logoDesc">Beauty store</desc>
</svg>
