<svg style="display:none">
<symbol id="Bell" xmlns="http://www.w3.org/2000/svg" viewBox="0 0 256 256"><rect width="256" height="256" fill="none"></rect><path d="M56.2,104a71.9,71.9,0,0,1,72.3-72c39.6.3,71.3,33.2,71.3,72.9V112c0,35.8,7.5,56.6,14.1,68a8,8,0,0,1-6.9,12H49a8,8,0,0,1-6.9-12c6.6-11.4,14.1-32.2,14.1-68Z" fill="none" stroke="currentColor" stroke-linecap="round" stroke-linejoin="round"></path><path d="M96,192v8a32,32,0,0,0,64,0v-8" fill="none" stroke="currentColor" stroke-linecap="round" stroke-linejoin="round"></path></symbol>
<symbol id="BellRinging" xmlns="http://www.w3.org/2000/svg" fill="currentColor" viewBox="0 0 256 256"><rect width="256" height="256" fill="none"></rect><path d="M56.20305,112a71.80121,71.80121,0,1,1,143.60186,0h0c0,35.81563,7.49325,56.59893,14.093,67.95814A7.999,7.999,0,0,1,207.01628,192H48.98365A7.99908,7.99908,0,0,1,42.103,179.95641c6.60328-11.35959,14.1-32.1426,14.1-67.95641Z" fill="none" stroke="currentColor" stroke-linecap="round" stroke-linejoin="round"></path><path d="M96,192v8a32,32,0,0,0,64,0v-8" fill="none" stroke="currentColor" stroke-linecap="round" stroke-linejoin="round"></path><path d="M183.43247,23.98832a104.46641,104.46641,0,0,1,37.91845,42.1156" fill="none" stroke="currentColor" stroke-linecap="round" stroke-linejoin="round"></path><path d="M34.64909,66.10391A104.46639,104.46639,0,0,1,72.56757,23.98829" fill="none" stroke="currentColor" stroke-linecap="round" stroke-linejoin="round"></path></symbol>
<symbol id="X" xmlns="http://www.w3.org/2000/svg" fill="currentColor" viewBox="0 0 256 256"><rect width="256" height="256" fill="none"></rect><line x1="200" y1="56" x2="56" y2="200" fill="none" stroke="currentColor" stroke-linecap="round" stroke-linejoin="round"></line><line x1="200" y1="200" x2="56" y2="56" fill="none" stroke="currentColor" stroke-linecap="round" stroke-linejoin="round"></line></symbol>
<symbol id="XCircle" xmlns="http://www.w3.org/2000/svg" fill="currentColor" viewBox="0 0 256 256"><rect width="256" height="256" fill="none"></rect><circle cx="128" cy="128" r="96" fill="none" stroke="currentColor" stroke-miterlimit="10"></circle><line x1="160" y1="96" x2="96" y2="160" fill="none" stroke="currentColor" stroke-linecap="round" stroke-linejoin="round"></line><line x1="160" y1="160" x2="96" y2="96" fill="none" stroke="currentColor" stroke-linecap="round" stroke-linejoin="round"></line></symbol>
<symbol id="List" xmlns="http://www.w3.org/2000/svg" fill="currentColor" viewBox="0 0 256 256"><rect width="256" height="256" fill="none"></rect><line x1="40" y1="128" x2="216" y2="128" stroke="currentColor" stroke-linecap="round" stroke-linejoin="round"></line><line x1="40" y1="64" x2="216" y2="64" stroke="currentColor" stroke-linecap="round" stroke-linejoin="round"></line><line x1="40" y1="192" x2="216" y2="192" stroke="currentColor" stroke-linecap="round" stroke-linejoin="round"></line></symbol>
<symbol id="MagnifyingGlass" xmlns="http://www.w3.org/2000/svg" fill="currentColor" viewBox="0 0 256 256" data-testid="store-input-mobile-button"><rect width="256" height="256" fill="none"></rect><circle cx="116" cy="116" r="84" fill="none" stroke="currentColor" stroke-linecap="round" stroke-linejoin="round"></circle><line x1="175.39356" y1="175.40039" x2="223.99414" y2="224.00098" fill="none" stroke="currentColor" stroke-linecap="round" stroke-linejoin="round"></line></symbol>
<symbol id="User" xmlns="http://www.w3.org/2000/svg" fill="currentColor" viewBox="0 0 256 256"><rect width="256" height="256" fill="none"></rect><circle cx="128" cy="96" r="64" fill="none" stroke="currentColor" stroke-linecap="round" stroke-linejoin="round"></circle><path d="M30.989,215.99064a112.03731,112.03731,0,0,1,194.02311.002" fill="none" stroke="currentColor" stroke-linecap="round" stroke-linejoin="round"></path></symbol>
<symbol id="ShoppingCart" xmlns="http://www.w3.org/2000/svg" fill="currentColor" viewBox="0 0 256 256"><rect width="256" height="256" fill="none"></rect><path d="M184,184H69.81818L41.92162,30.56892A8,8,0,0,0,34.05066,24H16" fill="none" stroke="currentColor" stroke-linecap="round" stroke-linejoin="round"></path><circle cx="80" cy="204" r="20" fill="none" stroke="currentColor" stroke-linecap="round" stroke-linejoin="round"></circle><circle cx="184" cy="204" r="20" fill="none" stroke="currentColor" stroke-linecap="round" stroke-linejoin="round"></circle><path d="M62.54543,144H188.10132a16,16,0,0,0,15.74192-13.13783L216,64H48" fill="none" stroke="currentColor" stroke-linecap="round" stroke-linejoin="round"></path></symbol>
<symbol id="ArrowRight" xmlns="http://www.w3.org/2000/svg" fill="currentColor" viewBox="0 0 256 256"><rect width="256" height="256" fill="none"></rect><line x1="40" y1="128" x2="216" y2="128" fill="none" stroke="currentColor" stroke-linecap="round" stroke-linejoin="round"></line><polyline points="144 56 216 128 144 200" fill="none" stroke="currentColor" stroke-linecap="round" stroke-linejoin="round"></polyline></symbol>
<symbol id="ArrowLeft" xmlns="http://www.w3.org/2000/svg" fill="currentColor" viewBox="0 0 256 256"><rect width="256" height="256" fill="none"></rect><line x1="216" y1="128" x2="40" y2="128" fill="none" stroke="currentColor" stroke-linecap="round" stroke-linejoin="round"></line><polyline points="112 56 40 128 112 200" fill="none" stroke="currentColor" stroke-linecap="round" stroke-linejoin="round"></polyline></symbol>
<symbol id="ArrowUpRight"  xmlns="http://www.w3.org/2000/svg" width="256" height="256" viewBox="0 0 256 256" fill="none"><path d="M13,0.25H3.25C2.83579,0.25,2.5,0.585786,2.5,1C2.5,1.41421,2.83579,1.75,3.25,1.75H11.1893L0.46967,12.4697C0.176777,12.7626,0.176777,13.2374,0.46967,13.5303C0.762563,13.8232,1.23744,13.8232,1.53033,13.5303L12.25,2.81066V10.75C12.25,11.1642,12.5858,11.5,13,11.5C13.4142,11.5,13.75,11.1642,13.75,10.75V1C13.75,0.793702,13.6667,0.606858,13.5319,0.471263C13.5314,0.470731,13.5309,0.4702,13.5303,0.46967C13.5298,0.46914,13.5293,0.46861,13.5287,0.468082C13.4572,0.396963,13.3749,0.343239,13.2871,0.306909C13.1987,0.270239,13.1017,0.25,13,0.25Z" fill="black"/></symbol>
<symbol id="Truck" viewBox="0 0 42 42" fill="none" xmlns="http://www.w3.org/2000/svg"><path d="M32.375 36.75C34.7912 36.75 36.75 34.7912 36.75 32.375C36.75 29.9588 34.7912 28 32.375 28C29.9588 28 28 29.9588 28 32.375C28 34.7912 29.9588 36.75 32.375 36.75Z" stroke="#F07B36" stroke-width="2" stroke-linecap="round" stroke-linejoin="round"></path><path d="M9.625 36.75C12.0412 36.75 14 34.7912 14 32.375C14 29.9588 12.0412 28 9.625 28C7.20875 28 5.25 29.9588 5.25 32.375C5.25 34.7912 7.20875 36.75 9.625 36.75Z" stroke="#F07B36" stroke-width="2" stroke-linecap="round" stroke-linejoin="round"></path><path d="M28 14H35L40.25 19.25V28H28V14Z" stroke="#F07B36" stroke-width="2" stroke-linecap="round" stroke-linejoin="round"></path><path d="M28 5.25H1.75V28H28V5.25Z" stroke="#F07B36" stroke-width="2" stroke-linecap="round" stroke-linejoin="round"></path></symbol>
<symbol id="Calendar" xmlns="http://www.w3.org/2000/svg" fill="currentColor" viewBox="0 0 256 256"><rect width="256" height="256" fill="none"></rect><rect x="40" y="40" width="176" height="176" rx="8"  stroke="currentColor" stroke-linecap="round" stroke-linejoin="round" fill="none"></rect><line x1="176" y1="24" x2="176" y2="56" fill="none" stroke="currentColor" stroke-linecap="round" stroke-linejoin="round"></line><line x1="80" y1="24" x2="80" y2="56" fill="none" stroke="currentColor" stroke-linecap="round" stroke-linejoin="round"></line><line x1="40" y1="88" x2="216" y2="88" fill="none" stroke="currentColor" stroke-linecap="round" stroke-linejoin="round"></line><path d="M92,127.99666h28l-16,20a16,16,0,1,1-11.30681,27.3206" fill="none" stroke="currentColor" stroke-linecap="round" stroke-linejoin="round"></path><polyline points="144 139.997 160 127.997 160 179.997" fill="none" stroke="currentColor" stroke-linecap="round" stroke-linejoin="round"></polyline></symbol>
<symbol id="Gift" xmlns="http://www.w3.org/2000/svg" fill="currentColor" viewBox="0 0 256 256"><rect width="256" height="256" fill="none"></rect><rect x="32" y="80" width="192" height="48" rx="7.99999" stroke="currentColor" stroke-linecap="round" stroke-linejoin="round" fill="none"></rect><path d="M208,128v72a8,8,0,0,1-8,8H56a8,8,0,0,1-8-8V128" fill="none" stroke="currentColor" stroke-linecap="round" stroke-linejoin="round"></path><line x1="128" y1="80" x2="128" y2="208" fill="none" stroke="currentColor" stroke-linecap="round" stroke-linejoin="round"></line><path d="M173.25483,68.68629C161.94113,80,128,80,128,80s0-33.94113,11.31371-45.25483a24,24,0,0,1,33.94112,33.94112Z" fill="none" stroke="currentColor" stroke-linecap="round" stroke-linejoin="round"></path><path d="M82.74517,68.68629C94.05887,80,128,80,128,80s0-33.94113-11.31371-45.25483A24,24,0,0,0,82.74517,68.68629Z" fill="none" stroke="currentColor" stroke-linecap="round" stroke-linejoin="round"></path></symbol>
<symbol id="Storefront" xmlns="http://www.w3.org/2000/svg" fill="currentColor" viewBox="0 0 256 256"><rect width="256" height="256" fill="none"></rect><path d="M48,139.58816V208a8,8,0,0,0,8,8H200a8,8,0,0,0,8-8V139.58972" fill="none" stroke="currentColor" stroke-linecap="round" stroke-linejoin="round"></path><path d="M54.03441,40H201.96559a8,8,0,0,1,7.69219,5.80223L224,96H32L46.34222,45.80223A8,8,0,0,1,54.03441,40Z" fill="none" stroke="currentColor" stroke-linecap="round" stroke-linejoin="round"></path><path d="M96,96v16a32,32,0,0,1-64,0V96" fill="none" stroke="currentColor" stroke-linecap="round" stroke-linejoin="round"></path><path d="M160,96v16a32,32,0,0,1-64,0V96" fill="none" stroke="currentColor" stroke-linecap="round" stroke-linejoin="round"></path><path d="M224,96v16a32,32,0,0,1-64,0V96" fill="none" stroke="currentColor" stroke-linecap="round" stroke-linejoin="round"></path></symbol>
<symbol id="ShieldCheck" xmlns="http://www.w3.org/2000/svg" fill="currentColor" viewBox="0 0 256 256"><rect width="256" height="256" fill="none"></rect><path d="M40,114.66667V56a8,8,0,0,1,8-8H208a8,8,0,0,1,8,8v58.66667c0,84.01533-71.306,111.85016-85.5438,116.57058a7.54755,7.54755,0,0,1-4.9124,0C111.306,226.51683,40,198.682,40,114.66667Z" fill="none" stroke="currentColor" stroke-linecap="round" stroke-linejoin="round"></path><polyline points="172 104 113.333 160 84 132" fill="none" stroke="currentColor" stroke-linecap="round" stroke-linejoin="round"></polyline></symbol>
<symbol id="Medal" xmlns="http://www.w3.org/2000/svg" fill="currentColor" viewBox="0 0 256 256"><rect width="256" height="256" fill="none"></rect><circle cx="127.99414" cy="96" r="80" fill="none" stroke="currentColor" stroke-linecap="round" stroke-linejoin="round"></circle><circle cx="127.99414" cy="96" r="48" fill="none" stroke="currentColor" stroke-linecap="round" stroke-linejoin="round"></circle><polyline points="176 159.995 176 240 127.993 216 80 240 80 160.002" fill="none" stroke="currentColor" stroke-linecap="round" stroke-linejoin="round"></polyline></symbol>
<symbol id="CircleWavyCheck" xmlns="http://www.w3.org/2000/svg" fill="currentColor" viewBox="0 0 256 256"><rect width="256" height="256" fill="none"></rect><path d="M54.46089,201.53911c-9.204-9.204-3.09935-28.52745-7.78412-39.85C41.82037,149.95168,24,140.50492,24,127.99963,24,115.4945,41.82047,106.048,46.67683,94.31079c4.68477-11.32253-1.41993-30.6459,7.78406-39.8499s28.52746-3.09935,39.85-7.78412C106.04832,41.82037,115.49508,24,128.00037,24c12.50513,0,21.95163,17.82047,33.68884,22.67683,11.32253,4.68477,30.6459-1.41993,39.8499,7.78406s3.09935,28.52746,7.78412,39.85C214.17963,106.04832,232,115.49508,232,128.00037c0,12.50513-17.82047,21.95163-22.67683,33.68884-4.68477,11.32253,1.41993,30.6459-7.78406,39.8499s-28.52745,3.09935-39.85,7.78412C149.95168,214.17963,140.50492,232,127.99963,232c-12.50513,0-21.95163-17.82047-33.68884-22.67683C82.98826,204.6384,63.66489,210.7431,54.46089,201.53911Z" fill="none" stroke="currentColor" stroke-linecap="round" stroke-linejoin="round"></path><polyline points="172 104 113.333 160 84 132" fill="none" stroke="currentColor" stroke-linecap="round" stroke-linejoin="round"></polyline></symbol>
<symbol id="CircleWavyWarning" xmlns="http://www.w3.org/2000/svg" fill="currentColor" viewBox="0 0 256 256"><rect width="256" height="256" fill="none"></rect><path d="M54.46089,201.53911c-9.204-9.204-3.09935-28.52745-7.78412-39.85C41.82037,149.95168,24,140.50492,24,127.99963,24,115.4945,41.82047,106.048,46.67683,94.31079c4.68477-11.32253-1.41993-30.6459,7.78406-39.8499s28.52746-3.09935,39.85-7.78412C106.04832,41.82037,115.49508,24,128.00037,24c12.50513,0,21.95163,17.82047,33.68884,22.67683,11.32253,4.68477,30.6459-1.41993,39.8499,7.78406s3.09935,28.52746,7.78412,39.85C214.17963,106.04832,232,115.49508,232,128.00037c0,12.50513-17.82047,21.95163-22.67683,33.68884-4.68477,11.32253,1.41993,30.6459-7.78406,39.8499s-28.52745,3.09935-39.85,7.78412C149.95168,214.17963,140.50492,232,127.99963,232c-12.50513,0-21.95163-17.82047-33.68884-22.67683C82.98826,204.6384,63.66489,210.7431,54.46089,201.53911Z" fill="none" stroke="currentColor" stroke-linecap="round" stroke-linejoin="round"></path><line x1="127.99951" y1="80" x2="127.99951" y2="136" fill="none" stroke="currentColor" stroke-linecap="round" stroke-linejoin="round"></line><circle cx="127.99951" cy="172" r="8"></circle></symbol>
<symbol id="CaretUp" xmlns="http://www.w3.org/2000/svg" fill="currentColor" viewBox="0 0 256 256"><rect width="256" height="256" fill="none"></rect><polyline points="48 160 128 80 208 160" fill="none" stroke="currentColor" stroke-linecap="round" stroke-linejoin="round"></polyline></symbol>
<symbol id="CaretDown" xmlns="http://www.w3.org/2000/svg" fill="currentColor" viewBox="0 0 256 256"><rect width="256" height="256" fill="none"></rect><polyline points="208 96 128 176 48 96" fill="none" stroke="currentColor" stroke-linecap="round" stroke-linejoin="round"></polyline></symbol>
<symbol id="CaretLeft" xmlns="http://www.w3.org/2000/svg" fill="currentColor" viewBox="0 0 256 256"><rect width="256" height="256" fill="none"></rect><polyline points="160 208 80 128 160 48" fill="none" stroke="currentColor" stroke-linecap="round" stroke-linejoin="round"></polyline></symbol>
<symbol id="PlusCircle" xmlns="http://www.w3.org/2000/svg" fill="currentColor" viewBox="0 0 256 256"><rect width="256" height="256" fill="none"></rect><circle cx="128" cy="128" r="96" fill="none" stroke="currentColor" stroke-miterlimit="10"></circle><line x1="88" y1="128" x2="168" y2="128" fill="none" stroke="currentColor" stroke-linecap="round" stroke-linejoin="round"></line><line x1="128" y1="88" x2="128" y2="168" fill="none" stroke="currentColor" stroke-linecap="round" stroke-linejoin="round"></line></symbol>
<symbol id="MinusCircle" xmlns="http://www.w3.org/2000/svg" fill="currentColor" viewBox="0 0 256 256"><rect width="256" height="256" fill="none"></rect><circle cx="128" cy="128" r="96" fill="none" stroke="currentColor" stroke-miterlimit="10"></circle><line x1="88" y1="128" x2="168" y2="128" fill="none" stroke="currentColor" stroke-linecap="round" stroke-linejoin="round"></line></symbol>
<symbol id="Minus" xmlns="http://www.w3.org/2000/svg" fill="currentColor" viewBox="0 0 256 256"><rect width="256" height="256" fill="none"></rect><line x1="40" y1="128" x2="216" y2="128" fill="none" stroke="currentColor" stroke-linecap="round" stroke-linejoin="round"></line></symbol>
<symbol id="Plus" xmlns="http://www.w3.org/2000/svg" fill="currentColor" viewBox="0 0 256 256"><rect width="256" height="256" fill="none"></rect><line x1="40" y1="128" x2="216" y2="128" fill="none" stroke="currentColor" stroke-linecap="round" stroke-linejoin="round"></line><line x1="128" y1="40" x2="128" y2="216" fill="none" stroke="currentColor" stroke-linecap="round" stroke-linejoin="round"></line></symbol>
<symbol id="House" xmlns="http://www.w3.org/2000/svg" viewBox="0 0 22 22" fill="none"><g opacity="0.5">
<path d="M2.75 11.9167H3.66666V18.3333C3.66666 19.3444 4.48891 20.1667 5.5 20.1667H16.5C17.5111 20.1667 18.3333 19.3444 18.3333 18.3333V11.9167H19.25C19.4313 11.9166 19.6085 11.8629 19.7592 11.7621C19.9099 11.6614 20.0273 11.5183 20.0967 11.3508C20.1661 11.1833 20.1842 10.999 20.1489 10.8212C20.1135 10.6434 20.0262 10.4801 19.8981 10.3519L11.6481 2.10193C11.563 2.01673 11.462 1.94913 11.3508 1.90302C11.2396 1.8569 11.1204 1.83316 11 1.83316C10.8796 1.83316 10.7604 1.8569 10.6492 1.90302C10.538 1.94913 10.437 2.01673 10.3519 2.10193L2.10191 10.3519C1.97376 10.4801 1.88648 10.6434 1.85113 10.8212C1.81578 10.999 1.83393 11.1833 1.90329 11.3508C1.97266 11.5183 2.09012 11.6614 2.24083 11.7621C2.39154 11.8629 2.56873 11.9166 2.75 11.9167ZM9.16667 18.3333V13.75H12.8333V18.3333H9.16667ZM11 4.04618L16.5 9.54618V13.75L16.5009 18.3333H14.6667V13.75C14.6667 12.7389 13.8444 11.9167 12.8333 11.9167H9.16667C8.15558 11.9167 7.33333 12.7389 7.33333 13.75V18.3333H5.5V9.54618L11 4.04618Z" fill="#EBA47A"/>
</g></symbol>
<symbol id="Filter" xmlns="http://www.w3.org/2000/svg" viewBox="0 0 16 12" fill="none"><path d="M2 10.5H7.25M2 1.5H14H2ZM2 6H14H2Z" stroke="#4F4F4F" stroke-width="2.3" stroke-linecap="round" stroke-linejoin="round"/></symbol>
<symbol id="OrderBy" xmlns="http://www.w3.org/2000/svg" viewBox="0 0 16 16" fill="none"><path d="M9.26828 2.8H0.800003V2H9.26828C9.43302 1.53392 9.87751 1.2 10.4 1.2C10.9225 1.2 11.367 1.53392 11.5317 2H15.2V2.8H11.5317C11.367 3.26607 10.9225 3.6 10.4 3.6C9.87751 3.6 9.43302 3.26607 9.26828 2.8Z" fill="#4F4F4F"/><path d="M5.13172 7.6C4.96699 7.13392 4.52249 6.8 4 6.8C3.47752 6.8 3.03302 7.13392 2.86829 7.6H0.800003V8.4H2.86829C3.03302 8.86607 3.47752 9.2 4 9.2C4.52249 9.2 4.96699 8.86607 5.13172 8.4H15.2V7.6H5.13172Z" fill="#4F4F4F"/><path d="M6.06829 13.2H0.800003V14H6.06829C6.23302 14.4661 6.67752 14.8 7.2 14.8C7.72249 14.8 8.16699 14.4661 8.33172 14H15.2V13.2H8.33172C8.16699 12.7339 7.72249 12.4 7.2 12.4C6.67752 12.4 6.23302 12.7339 6.06829 13.2Z" fill="#4F4F4F"/></symbol>
<symbol id="ArrowDown" xmlns="http://www.w3.org/2000/svg" viewBox="0 0 13 13" fill="none"><path d="M6.5 1.54157L6.5 11.4582" stroke="#BDBDBD" stroke-width="2" stroke-linecap="round" stroke-linejoin="round"/><path d="M11.4583 6.4999L6.49996 11.4582L1.54163 6.4999" stroke="#BDBDBD" stroke-width="2" stroke-linecap="round" stroke-linejoin="round"/></symbol>
<symbol id="RocketLaunch" xmlns="http://www.w3.org/2000/svg" fill="currentColor" viewBox="0 0 256 256"><rect width="256" height="256" fill="none"></rect><path d="M195.88225,105.37258,128,173.25483,82.74517,128l67.88225-67.88225c25.70415-25.70415,51.40829-25.45342,62.37042-23.81787a7.96343,7.96343,0,0,1,6.70228,6.70228C221.33567,53.96429,221.5864,79.66843,195.88225,105.37258Z" fill="none" stroke="currentColor" stroke-linecap="round" stroke-linejoin="round"></path><path d="M184.56854,116.68629v64.56854a8,8,0,0,1-2.34314,5.65686l-32.34176,32.34176a8,8,0,0,1-13.5015-4.08793L128,173.25483" fill="none" stroke="currentColor" stroke-linecap="round" stroke-linejoin="round"></path><path d="M139.31371,71.43146H74.74517a8,8,0,0,0-5.65686,2.34314L36.74655,106.11636a8,8,0,0,0,4.08793,13.5015L82.74517,128" fill="none" stroke="currentColor" stroke-linecap="round" stroke-linejoin="round"></path><path d="M90.56048,192.38144c-15.05815,26.12823-53.07015,26.12823-53.07015,26.12823s0-38.012,26.12827-53.07018" fill="none" stroke="currentColor" stroke-linecap="round" stroke-linejoin="round"></path></symbol>
<symbol id="FadersHorizontal" xmlns="http://www.w3.org/2000/svg" fill="currentColor" viewBox="0 0 256 256"><rect width="256" height="256" fill="none"></rect><line x1="135.99902" y1="171.99304" x2="39.99902" y2="171.99317" fill="none" stroke="currentColor" stroke-linecap="round" stroke-linejoin="round"></line><line x1="215.99902" y1="171.99317" x2="167.99902" y2="171.99304" fill="none" stroke="currentColor" stroke-linecap="round" stroke-linejoin="round"></line><line x1="71.99902" y1="83.99304" x2="39.99902" y2="83.99246" fill="none" stroke="currentColor" stroke-linecap="round" stroke-linejoin="round"></line><line x1="215.99902" y1="83.99246" x2="103.99902" y2="83.99304" fill="none" stroke="currentColor" stroke-linecap="round" stroke-linejoin="round"></line><line x1="103.99902" y1="59.99304" x2="103.99902" y2="107.99304" fill="none" stroke="currentColor" stroke-linecap="round" stroke-linejoin="round"></line><line x1="167.99902" y1="195.99304" x2="167.99902" y2="147.99304" fill="none" stroke="currentColor" stroke-linecap="round" stroke-linejoin="round"></line></symbol>
<symbol id="Headphones" xmlns="http://www.w3.org/2000/svg" fill="currentColor" viewBox="0 0 256 256"><rect width="256" height="256" fill="none"></rect><path d="M225.45581,136h-32a16,16,0,0,0-16,16v40a16,16,0,0,0,16,16h16a16,16,0,0,0,16-16V136A96.0001,96.0001,0,0,0,128.7279,40.0027,96.00009,96.00009,0,0,0,32,136v56a16,16,0,0,0,16,16H64a16,16,0,0,0,16-16V152a16,16,0,0,0-16-16H32" fill="none" stroke="currentColor" stroke-linecap="round" stroke-linejoin="round"></path></symbol>

<symbol id="Mastercard" xmlns="http://www.w3.org/2000/svg"  fill="none" viewBox="0 0 18 12"> <path fill-rule="evenodd" clip-rule="evenodd" d="M12.7255 11.1016C15.5955 11.1016 17.9222 8.80264 17.9222 5.96674C17.9222 3.13085 15.5955 0.831909 12.7255 0.831909C11.4392 0.831909 10.2621 1.29368 9.3546 2.05861C8.44715 1.29372 7.27004 0.831973 5.98379 0.831973C3.11374 0.831973 0.787109 3.13092 0.787109 5.96681C0.787109 8.8027 3.11374 11.1016 5.98379 11.1016C7.27008 11.1016 8.44722 10.6399 9.35467 9.87494C10.2621 10.6398 11.4392 11.1016 12.7255 11.1016Z" fill="#757575"/><path fill-rule="evenodd" clip-rule="evenodd" d="M9.35449 9.87479C10.4718 8.93297 11.1803 7.53155 11.1803 5.96662C11.1803 4.40169 10.4718 3.00027 9.35449 2.05845C10.2619 1.29355 11.4391 0.831787 12.7253 0.831787C15.5954 0.831787 17.922 3.13073 17.922 5.96662C17.922 8.80251 15.5954 11.1015 12.7253 11.1015C11.4391 11.1015 10.2619 10.6397 9.35449 9.87479Z" fill="#BABABA"/><path fill-rule="evenodd" clip-rule="evenodd" d="M9.35513 9.87482C10.4725 8.93299 11.181 7.53157 11.181 5.96664C11.181 4.40172 10.4725 3.00029 9.35513 2.05847C8.23779 3.00029 7.5293 4.40172 7.5293 5.96664C7.5293 7.53157 8.23779 8.93299 9.35513 9.87482Z" fill="#979797"/> </symbol>
<symbol id="Visa" xmlns="http://www.w3.org/2000/svg"  fill="none" viewBox="0 0 20 7"><path d="M18.3655 0.216919H17.1321C16.7592 0.216919 16.4724 0.331654 16.3003 0.704543L13.9482 6.0684H15.6119C15.6119 6.0684 15.8987 5.35131 15.9561 5.17921C16.1282 5.17921 17.7632 5.17921 17.9927 5.17921C18.05 5.37999 18.1934 6.03972 18.1934 6.03972H19.685L18.3655 0.216919ZM16.415 3.97449C16.5585 3.63028 17.0461 2.33952 17.0461 2.33952C17.0461 2.3682 17.1895 1.99531 17.2469 1.79452L17.3616 2.31083C17.3616 2.31083 17.6771 3.71634 17.7345 4.00317H16.415V3.97449Z" fill="#676767"/><path d="M14.0627 4.14671C14.0627 5.35142 12.9727 6.15457 11.2803 6.15457C10.5633 6.15457 9.87484 6.01115 9.50195 5.83905L9.73142 4.51959L9.93221 4.60565C10.4485 4.83512 10.7927 4.92117 11.4238 4.92117C11.8827 4.92117 12.3703 4.74906 12.3703 4.34749C12.3703 4.08934 12.1695 3.91724 11.5385 3.6304C10.9361 3.34356 10.133 2.88462 10.133 2.05279C10.133 0.905443 11.2517 0.130981 12.8293 0.130981C13.4316 0.130981 13.9479 0.245716 14.2635 0.389135L14.034 1.65122L13.9193 1.53649C13.6324 1.42175 13.2595 1.30702 12.7145 1.30702C12.1122 1.3357 11.8253 1.59385 11.8253 1.82332C11.8253 2.08148 12.1695 2.28226 12.7145 2.54042C13.6324 2.97067 14.0627 3.4583 14.0627 4.14671Z" fill="#676767"/><path d="M0.0654297 0.274525L0.0941134 0.15979H2.56092C2.90512 0.15979 3.16327 0.274525 3.24933 0.647414L3.79432 3.22895C3.24933 1.85213 1.98724 0.733465 0.0654297 0.274525Z" fill="#676767"/><path d="M7.26459 0.216794L4.76911 6.0396H3.07677L1.64258 1.16336C2.67519 1.82308 3.53571 2.8557 3.85123 3.57279L4.02333 4.17515L5.57225 0.18811H7.26459V0.216794Z" fill="#676767"/><path d="M7.92483 0.18811H9.50244L8.4985 6.0396H6.9209L7.92483 0.18811Z" fill="#676767"/> </symbol>
<symbol id="EloCard" xmlns="http://www.w3.org/2000/svg" fill="none" viewBox="0 0 12 12"> <circle cx="6" cy="6" r="6" fill="black"/><path fill-rule="evenodd" clip-rule="evenodd" d="M6.13544 4V7.1514L6.68069 7.37808L6.42275 7.99965L5.88354 7.77486C5.7623 7.72212 5.68025 7.64178 5.61791 7.55104C5.55805 7.4582 5.51367 7.33131 5.51367 7.16008V4H6.13544ZM2.0002 6.34233C2.01374 5.44113 2.75371 4.72174 3.6516 4.73555C4.41368 4.74753 5.04511 5.2829 5.21096 5.99495L2.26348 7.25843C2.09226 6.99591 1.99496 6.68009 2.0002 6.34233ZM2.67402 6.46871C2.66998 6.43089 2.66712 6.39213 2.6682 6.35301C2.67665 5.82205 3.1123 5.39837 3.6413 5.40717C3.92925 5.41102 4.18493 5.54327 4.35777 5.74795L2.67402 6.46871ZM4.29718 7.05391C4.11954 7.22722 3.87864 7.33281 3.61266 7.32902C3.43034 7.32595 3.26142 7.27121 3.11779 7.18L2.76172 7.74903C3.00558 7.90362 3.29311 7.99509 3.60309 7.99991C4.05431 8.00663 4.46557 7.82886 4.76461 7.53532L4.29718 7.05391ZM8.40449 5.40697C8.29828 5.40697 8.1962 5.42419 8.10083 5.45629L7.88867 4.81865C8.05061 4.76442 8.22402 4.73496 8.40449 4.73496C9.192 4.73496 9.84896 5.29602 9.99961 6.04132L9.34284 6.17561C9.25434 5.73698 8.86785 5.40697 8.40449 5.40697ZM7.32666 7.59004L7.77044 7.08672C7.57224 6.91074 7.44743 6.6537 7.44743 6.36721C7.44743 6.08101 7.57224 5.8241 7.77025 5.64824L7.32616 5.14492C6.98947 5.44397 6.77734 5.88095 6.77734 6.36721C6.77734 6.85408 6.98963 7.2909 7.32666 7.59004ZM8.40528 7.32787C8.86823 7.32787 9.25466 6.99815 9.34367 6.56016L10.0003 6.69502C9.84887 7.43952 9.1921 7.99982 8.40528 7.99982C8.22469 7.99982 8.05105 7.97026 7.88867 7.91578L8.10134 7.27836C8.19687 7.31037 8.29901 7.32787 8.40528 7.32787Z" fill="white"/></symbol>
<symbol id="Hiper" xmlns="http://www.w3.org/2000/svg" fill="none" viewBox="0 0 27 11"> <path d="M7.38282 0H4.59559C3.36399 0.0525443 2.35729 0.500147 2.06662 1.42317C1.91505 1.90455 1.83164 2.43323 1.71312 2.93224C1.1106 5.46951 0.576336 8.07672 0 10.5634H21.6997C23.3773 10.5634 24.5292 10.2435 24.8405 9.04195C24.9851 8.48383 25.1236 7.85173 25.2619 7.23853C25.8013 4.8477 26.3411 2.45701 26.8936 0H7.38282Z" fill="#888888"/><path d="M7.16568 3.75422C7.28225 3.68177 7.43239 3.35178 7.26087 3.21439C7.20654 3.1709 7.11569 3.15828 6.98893 3.17762C6.87136 3.19553 6.80374 3.23159 6.75781 3.28804C6.684 3.37879 6.61627 3.65257 6.73062 3.75427C6.84201 3.85326 7.09151 3.80029 7.16568 3.75422V3.75422ZM5.50694 3.21439C5.42342 3.70339 5.32935 4.18287 5.23501 4.6621C4.62932 4.66787 4.01091 4.68906 3.42671 4.64981C3.53704 4.18096 3.61618 3.68391 3.72583 3.21439H3.07321C2.8396 4.41038 2.62706 5.62548 2.36621 6.79689H3.03245C3.13693 6.19603 3.2347 5.58899 3.37233 5.01791C3.94038 5.00528 4.62119 4.98327 5.16706 5.0302C5.05451 5.62391 4.91852 6.19632 4.81357 6.79689H5.47981C5.69393 5.58322 5.91941 4.37994 6.18686 3.21439H5.50694V3.21439ZM14.9292 4.24499C14.4108 4.05606 14.0033 4.37532 13.8143 4.67439C13.8572 4.54134 13.8748 4.38552 13.9096 4.24499H13.3929C13.2665 5.1289 13.0804 5.95875 12.9034 6.79689H13.4881C13.57 6.29941 13.6054 5.62876 13.7872 5.15286C13.9325 4.77257 14.3127 4.44859 14.8613 4.62533C14.8689 4.48503 14.9134 4.37794 14.9292 4.24499V4.24499ZM15.2554 6.19575C15.2015 6.07008 15.1877 5.86267 15.2011 5.70494C15.2313 5.35047 15.3745 4.91887 15.5954 4.72346C15.9003 4.45378 16.5022 4.49842 16.9823 4.64986C16.9971 4.50385 17.0296 4.37361 17.0503 4.23274C16.2629 4.1167 15.5158 4.18892 15.1197 4.56402C14.7318 4.93121 14.4777 5.77516 14.6573 6.30617C14.8676 6.92756 15.8108 6.96133 16.5744 6.72333C16.6082 6.59843 16.6261 6.45918 16.656 6.33075C16.2387 6.5263 15.4409 6.62796 15.2554 6.19575V6.19575ZM21.8225 4.25723C21.3058 4.02409 20.8756 4.41529 20.7076 4.64981C20.7555 4.52948 20.7582 4.36832 20.8028 4.24494H20.2861C20.1468 5.12119 19.9789 5.97161 19.7831 6.79684H20.3814C20.3851 6.45861 20.4588 6.20842 20.5173 5.87677C20.6423 5.16849 20.8259 4.39181 21.7411 4.62528C21.7713 4.50552 21.7839 4.36965 21.8225 4.25723ZM6.56744 4.24499C6.5516 4.24704 6.55266 4.26438 6.55382 4.28176C6.425 5.1511 6.25063 5.97942 6.06438 6.79684H6.649C6.78948 5.92164 6.95039 5.06497 7.15206 4.24494L6.56744 4.24499V4.24499ZM11.7068 4.19592C11.2844 4.22531 10.9273 4.33497 10.6735 4.57626C10.3623 4.87214 10.1102 5.52634 10.1841 6.12215C10.2895 6.9721 11.4623 6.94156 12.4003 6.73558C12.4163 6.58638 12.4563 6.45885 12.4818 6.31841C12.0954 6.44889 11.4245 6.63101 11.027 6.40435C10.7269 6.23309 10.7252 5.79964 10.823 5.42283C11.4535 5.40472 12.1087 5.40815 12.7401 5.42283C12.7801 5.15577 12.8947 4.86461 12.7945 4.60084C12.6623 4.25261 12.1887 4.16238 11.7068 4.19592ZM12.2643 5.12833H10.891C10.9345 4.84346 11.2185 4.53034 11.666 4.5149C12.0872 4.50037 12.3888 4.65443 12.2643 5.12833V5.12833ZM9.49066 4.24499C8.99584 4.07725 8.39279 4.27748 8.13131 4.46793C8.13226 4.47632 8.12508 4.47746 8.11737 4.47808C8.12181 4.4747 8.12666 4.47131 8.13131 4.46793C8.13127 4.46723 8.13118 4.46653 8.13105 4.46584C8.13543 4.38395 8.16737 4.32688 8.1718 4.24499H7.66874C7.4591 5.50353 7.2105 6.72686 6.94818 7.93786H7.5328C7.61743 7.46624 7.67328 6.96867 7.79117 6.52697C7.92468 6.99153 8.7965 6.90278 9.16441 6.72329C9.9234 6.35286 10.5089 4.59007 9.49066 4.24499V4.24499ZM9.02841 6.31841C8.71562 6.61734 7.94664 6.61286 7.8863 6.10981C7.86006 5.89096 7.95039 5.66149 7.99516 5.43507C8.04029 5.20589 8.07287 4.98599 8.11743 4.78482C8.42552 4.44535 9.33086 4.40433 9.42272 4.96884C9.50238 5.45894 9.28741 6.07084 9.02841 6.31841V6.31841ZM23.9979 3.14079C23.9478 3.53723 23.8808 3.91848 23.794 4.28176C22.3599 3.87213 21.4804 4.82426 21.4963 5.99943C21.4994 6.22671 21.5427 6.45209 21.7001 6.61286C21.9717 6.88983 22.7489 6.95619 23.1414 6.72324C23.2173 6.67817 23.295 6.59614 23.3453 6.53926C23.3832 6.49644 23.4432 6.38425 23.4541 6.41655C23.4334 6.54103 23.4026 6.6564 23.3998 6.79684H23.93C24.0323 5.47404 24.3482 4.34422 24.5827 3.14075H23.9979V3.14079H23.9979ZM22.6927 6.51468C22.2991 6.5223 22.1034 6.3025 22.0944 5.93808C22.0787 5.29983 22.389 4.59074 23.019 4.52714C23.3123 4.49756 23.5247 4.55911 23.7396 4.62533C23.5423 5.34227 23.6135 6.49686 22.6927 6.51468V6.51468ZM17.6484 4.24499C17.6197 4.39076 17.5755 4.52267 17.5397 4.6621C17.8847 4.58402 18.9589 4.34469 19.0625 4.76024C19.0968 4.89829 19.0376 5.04497 18.9945 5.15286C18.0231 5.06983 17.2313 5.21546 17.023 5.83989C16.8835 6.25815 17.0386 6.66974 17.3357 6.78464C17.908 7.00587 18.604 6.75244 18.8449 6.40435C18.8199 6.52483 18.7962 6.64664 18.8042 6.79689H19.3072C19.3126 6.36215 19.3827 6.01025 19.4568 5.61905C19.5199 5.28592 19.6388 4.95612 19.62 4.6621C19.5767 3.98874 18.3404 4.22693 17.6484 4.24499V4.24499ZM18.6002 6.30612C18.2989 6.57227 17.4531 6.64788 17.5397 6.01168C17.6115 5.48328 18.2491 5.371 18.94 5.44727C18.8887 5.73633 18.8298 6.10333 18.6002 6.30612V6.30612Z" fill="white"/> </symbol>
<symbol id="PayPal" xmlns="http://www.w3.org/2000/svg" fill="none" viewBox="0 0 12 14"> <path d="M3.61499 13.4483L3.83569 11.9992L3.34399 11.9873H0.996094L2.62779 1.2937C2.63289 1.26132 2.64929 1.23126 2.67329 1.20988C2.69749 1.18849 2.72819 1.17676 2.76039 1.17676H6.71929C8.03379 1.17676 8.94079 1.4594 9.41429 2.01734C9.63629 2.27908 9.77769 2.55267 9.84609 2.85364C9.91789 3.16951 9.91909 3.54685 9.84909 4.00716L9.84399 4.04064V4.33562L10.066 4.46563C10.2529 4.56815 10.4016 4.68546 10.5155 4.81975C10.7054 5.04362 10.8282 5.32812 10.8801 5.66522C10.9338 6.01202 10.9161 6.42482 10.8282 6.89202C10.7269 7.42942 10.5632 7.89762 10.342 8.28052C10.1386 8.63342 9.87949 8.92622 9.57169 9.15302C9.27799 9.36862 8.92899 9.53222 8.53429 9.63692C8.15189 9.73982 7.71589 9.79172 7.23759 9.79172H6.92949C6.70929 9.79172 6.49529 9.87372 6.32729 10.0207C6.15879 10.1708 6.04749 10.3758 6.01329 10.6L5.98999 10.7305L5.59999 13.2848L5.58239 13.3785C5.57759 13.4082 5.56959 13.423 5.55779 13.433C5.54729 13.4422 5.53209 13.4483 5.51739 13.4483H3.61499Z" fill="#28356A"/><path d="M10.276 4.07471C10.2643 4.15279 10.2507 4.23258 10.2356 4.31457C9.71352 7.08523 7.92732 8.04233 5.64602 8.04233H4.48452C4.20552 8.04233 3.97032 8.25173 3.92692 8.53613L3.16382 13.5394C3.13552 13.7262 3.27482 13.8945 3.45712 13.8945H5.51732C5.76122 13.8945 5.96842 13.7113 6.00682 13.4626L6.02712 13.3545L6.41502 10.8103L6.43992 10.6707C6.47782 10.4212 6.68562 10.2379 6.92952 10.2379H7.23762C9.23352 10.2379 10.7961 9.40043 11.2528 6.97663C11.4435 5.96413 11.3448 5.11863 10.84 4.52402C10.6872 4.34476 10.4977 4.19592 10.276 4.07471Z" fill="#979797"/><path d="M9.72888 3.84969C9.64908 3.82562 9.56678 3.80387 9.48238 3.78419C9.39748 3.76501 9.31058 3.74803 9.22108 3.73312C8.90788 3.68082 8.56468 3.65601 8.19708 3.65601H5.09408C5.01758 3.65601 4.94498 3.67385 4.88008 3.70611C4.73688 3.77723 4.63068 3.91726 4.60488 4.0887L3.94468 8.41026L3.92578 8.53626C3.96918 8.25176 4.20428 8.04246 4.48338 8.04246H5.64488C7.92618 8.04246 9.71238 7.08476 10.2345 4.31464C10.2501 4.23265 10.2632 4.15286 10.2749 4.07477C10.1429 4.00231 9.99978 3.94036 9.84578 3.88757C9.80768 3.8745 9.76848 3.86191 9.72888 3.84969Z" fill="black"/><path d="M4.60459 4.08862C4.63039 3.91718 4.73669 3.77715 4.87989 3.70652C4.94529 3.67414 5.01739 3.6563 5.09389 3.6563H8.19689C8.56449 3.6563 8.90769 3.68123 9.22079 3.73353C9.31029 3.74831 9.39719 3.76542 9.48209 3.7846C9.56649 3.80415 9.64879 3.82603 9.72859 3.84998C9.76819 3.8622 9.80749 3.8749 9.84589 3.88749C9.99989 3.94028 10.1431 4.00272 10.2752 4.07469C10.4305 3.05082 10.2739 2.3537 9.73829 1.72245C9.14779 1.0274 8.08209 0.72998 6.71839 0.72998H2.75929C2.48069 0.72998 2.24309 0.9393 2.20009 1.22426L0.551092 12.0279C0.518592 12.2416 0.678092 12.4344 0.886592 12.4344H3.33079L4.60459 4.08862Z" fill="black"/> </symbol>
<symbol id="Diners" xmlns="http://www.w3.org/2000/svg" fill="none" viewBox="0 0 13 11"><path fill-rule="evenodd" clip-rule="evenodd" d="M5.28731 11.0005H7.22181C10.2415 11.0005 12.6478 8.5614 12.7422 5.54841V5.50058C12.695 2.43977 10.2415 -0.0471468 7.22181 0.000678428H5.0514C2.17325 0.096329 -0.0915204 2.58324 0.00284509 5.54841C0.00284509 8.51357 2.36198 10.9527 5.28731 11.0005ZM0.945677 5.50046C0.945677 3.01355 2.97453 0.95706 5.42804 0.95706C7.88154 0.95706 9.9104 3.01355 9.9104 5.50046C9.9104 7.98737 7.88154 10.0439 5.42804 10.0439C2.97453 10.0439 0.945677 7.98737 0.945677 5.50046ZM6.13453 8.56159V2.48778C7.78593 2.91821 8.82395 4.59209 8.3993 6.26597C8.11621 7.41378 7.26692 8.27464 6.13453 8.56159ZM2.50369 4.73557C2.07904 6.40945 3.06988 8.13116 4.72128 8.56159V2.48778C3.63607 2.77473 2.78678 3.63559 2.50369 4.73557Z" fill="#454545"/></symbol>
<symbol id="Boleto" xmlns="http://www.w3.org/2000/svg" fill="none" viewBox="0 0 21 9"><path fill-rule="evenodd" clip-rule="evenodd" d="M1.43457 0H2.42741V8.85601H1.43457V0Z" fill="black"/><path fill-rule="evenodd" clip-rule="evenodd" d="M2.74121 0H3.04782V8.85601H2.74121V0Z" fill="black"/><path fill-rule="evenodd" clip-rule="evenodd" d="M3.31641 0H3.86758V8.85601H3.31641V0Z" fill="black"/><path fill-rule="evenodd" clip-rule="evenodd" d="M4.39844 0H4.70687V8.85601H4.39844V0Z" fill="black"/><path fill-rule="evenodd" clip-rule="evenodd" d="M4.83984 0H5.0771V8.85601H4.83984V0Z" fill="black"/><path fill-rule="evenodd" clip-rule="evenodd" d="M0.678711 0H0.987147V8.85601H0.678711V0Z" fill="black"/><path fill-rule="evenodd" clip-rule="evenodd" d="M0 0H0.55117V8.85601H0V0Z" fill="black"/><path fill-rule="evenodd" clip-rule="evenodd" d="M6.72168 0H7.71634V8.85601H6.72168V0Z" fill="black"/><path fill-rule="evenodd" clip-rule="evenodd" d="M8.0293 0H8.33773V8.85601H8.0293V0Z" fill="black"/><path fill-rule="evenodd" clip-rule="evenodd" d="M8.60449 0H9.15566V8.85601H8.60449V0Z" fill="black"/><path fill-rule="evenodd" clip-rule="evenodd" d="M9.6875 0H9.99411V8.85601H9.6875V0Z" fill="black"/><path fill-rule="evenodd" clip-rule="evenodd" d="M10.1289 0H10.3662V8.85601H10.1289V0Z" fill="black"/><path fill-rule="evenodd" clip-rule="evenodd" d="M5.96777 0H6.27438V8.85601H5.96777V0Z" fill="black"/><path fill-rule="evenodd" clip-rule="evenodd" d="M5.28906 0H5.84023V8.85601H5.28906V0Z" fill="black"/><path fill-rule="evenodd" clip-rule="evenodd" d="M10.7568 0H11.3062V8.85601H10.7568V0Z" fill="black"/><path fill-rule="evenodd" clip-rule="evenodd" d="M11.8379 0H12.1463V8.85601H11.8379V0Z" fill="black"/><path fill-rule="evenodd" clip-rule="evenodd" d="M12.2812 0H12.5167V8.85601H12.2812V0Z" fill="black"/><path fill-rule="evenodd" clip-rule="evenodd" d="M13.4072 0H13.7157V8.85601H13.4072V0Z" fill="black"/><path fill-rule="evenodd" clip-rule="evenodd" d="M12.7275 0H13.2787V8.85601H12.7275V0Z" fill="black"/><path fill-rule="evenodd" clip-rule="evenodd" d="M14.125 0H14.4334V8.85601H14.125V0Z" fill="black"/><path fill-rule="evenodd" clip-rule="evenodd" d="M14.5654 0H14.8027V8.85601H14.5654V0Z" fill="black"/><path fill-rule="evenodd" clip-rule="evenodd" d="M15.6924 0H16.0008V8.85601H15.6924V0Z" fill="black"/><path fill-rule="evenodd" clip-rule="evenodd" d="M15.0127 0H15.5639V8.85601H15.0127V0Z" fill="black"/><path fill-rule="evenodd" clip-rule="evenodd" d="M16.2686 0H17.2614V8.85601H16.2686V0Z" fill="black"/><path fill-rule="evenodd" clip-rule="evenodd" d="M17.5752 0H17.8818V8.85601H17.5752V0Z" fill="black"/><path fill-rule="evenodd" clip-rule="evenodd" d="M18.1504 0H18.7016V8.85601H18.1504V0Z" fill="black"/><path fill-rule="evenodd" clip-rule="evenodd" d="M19.2324 0H19.5409V8.85601H19.2324V0Z" fill="black"/><path fill-rule="evenodd" clip-rule="evenodd" d="M19.6738 0H19.9111V8.85601H19.6738V0Z" fill="black"/><path fill-rule="evenodd" clip-rule="evenodd" d="M20.3018 0H20.8529V8.85601H20.3018V0Z" fill="black"/><path fill-rule="evenodd" clip-rule="evenodd" d="M1.12402 8.875H20.1613V3.91174H1.12402V8.875Z" fill="white"/><path d="M1.48242 8.68588V4.19531H3.25274C3.61227 4.19531 3.90063 4.2405 4.11964 4.33086C4.33683 4.42123 4.50656 4.562 4.63066 4.75142C4.75477 4.93911 4.81682 5.13722 4.81682 5.34402C4.81682 5.53518 4.76207 5.71592 4.65256 5.88623C4.54306 6.0548 4.3788 6.19209 4.15797 6.29636C4.44268 6.3763 4.66351 6.51185 4.81499 6.70475C4.9683 6.89591 5.04495 7.12357 5.04495 7.38424C5.04495 7.59452 4.9975 7.79089 4.90442 7.97163C4.81134 8.15236 4.69636 8.29139 4.55948 8.39045C4.4226 8.48777 4.24922 8.56249 4.04299 8.61289C3.83493 8.66329 3.58125 8.68762 3.28194 8.68762H1.48242V8.68588ZM2.10842 6.0826H3.12863C3.40604 6.0826 3.60315 6.06522 3.7236 6.03047C3.88238 5.98528 4.00284 5.91056 4.08314 5.80629C4.16344 5.70202 4.2036 5.57168 4.2036 5.41354C4.2036 5.26408 4.16709 5.13201 4.09044 5.01905C4.01561 4.90435 3.90793 4.82615 3.76923 4.78444C3.63052 4.74273 3.38962 4.72188 3.05198 4.72188H2.10842V6.0826V6.0826ZM2.10842 8.15932H3.28376C3.48634 8.15932 3.62687 8.15236 3.709 8.13672C3.85136 8.11239 3.97181 8.07242 4.06854 8.01508C4.16527 7.95773 4.24375 7.87431 4.30762 7.76483C4.36968 7.65534 4.4007 7.52848 4.4007 7.38598C4.4007 7.21741 4.35508 7.07317 4.26382 6.94804C4.17439 6.82292 4.04846 6.73777 3.88786 6.68737C3.72908 6.63697 3.49729 6.61264 3.19798 6.61264H2.10659V8.15932H2.10842Z" fill="black"/><path d="M5.61133 7.05794C5.61133 6.45665 5.78653 6.01177 6.13877 5.72155C6.43261 5.48173 6.79032 5.36182 7.21374 5.36182C7.68278 5.36182 8.06604 5.50779 8.36535 5.80149C8.66284 6.09345 8.81249 6.49836 8.81249 7.01276C8.81249 7.43158 8.74679 7.75829 8.61539 7.99811C8.48398 8.23793 8.29235 8.42388 8.03867 8.55596C7.78681 8.68803 7.51122 8.75407 7.21374 8.75407C6.73557 8.75407 6.34865 8.60809 6.05299 8.31787C5.75916 8.02592 5.61133 7.60536 5.61133 7.05794ZM6.20447 7.05968C6.20447 7.47502 6.29938 7.78783 6.49101 7.9929C6.68264 8.1997 6.92355 8.30397 7.21374 8.30397C7.5021 8.30397 7.74118 8.1997 7.93281 7.9929C8.12444 7.78436 8.21935 7.46807 8.21935 7.0423C8.21935 6.64086 8.12262 6.33674 7.93099 6.13168C7.73935 5.92487 7.50027 5.82061 7.21374 5.82061C6.92355 5.82061 6.68264 5.92314 6.49101 6.1282C6.29938 6.33327 6.20447 6.64434 6.20447 7.05968Z" fill="black"/><path d="M9.47949 8.68588V4.19531H10.0599V8.68588H9.47949Z" fill="black"/><path d="M13.2877 7.63143L13.8864 7.70616C13.7933 8.03808 13.6181 8.29528 13.3644 8.47949C13.1089 8.66197 12.784 8.75407 12.388 8.75407C11.8897 8.75407 11.4937 8.60809 11.2017 8.3144C10.9097 8.02244 10.7637 7.61231 10.7637 7.08401C10.7637 6.53833 10.9115 6.1143 11.2053 5.81365C11.501 5.51127 11.8843 5.36182 12.3551 5.36182C12.8114 5.36182 13.1837 5.50953 13.4721 5.80496C13.7604 6.1004 13.9064 6.51748 13.9064 7.05273C13.9064 7.08575 13.9046 7.13441 13.9028 7.19871H11.3568C11.3787 7.55496 11.4846 7.82954 11.6744 8.01897C11.8642 8.20839 12.1033 8.30397 12.3862 8.30397C12.5979 8.30397 12.7785 8.2501 12.9282 8.14409C13.0815 8.03635 13.2001 7.86604 13.2877 7.63143ZM11.3897 6.74861H13.2932C13.2677 6.47403 13.1947 6.2707 13.0742 6.13342C12.8917 5.9214 12.6508 5.81539 12.3588 5.81539C12.0923 5.81539 11.8697 5.90054 11.689 6.06912C11.5101 6.23595 11.4097 6.4636 11.3897 6.74861Z" fill="black"/><path d="M15.8778 8.19228L15.9563 8.67887C15.7939 8.71189 15.6479 8.72753 15.5201 8.72753C15.3103 8.72753 15.1478 8.69625 15.031 8.63195C14.916 8.56765 14.8339 8.48597 14.7865 8.3817C14.739 8.27743 14.7171 8.0602 14.7171 7.73001V5.85663H14.29V5.43086H14.7189V4.62624L15.2993 4.29431V5.43086H15.8778V5.85663H15.2975V7.76303C15.2975 7.92117 15.3066 8.02197 15.3285 8.06715C15.3486 8.11234 15.3814 8.14709 15.4271 8.1749C15.4727 8.20097 15.5384 8.21487 15.6242 8.21487C15.688 8.21487 15.7738 8.20792 15.8778 8.19228Z" fill="black"/><path d="M16.2314 7.05794C16.2314 6.45665 16.4067 6.01177 16.7589 5.72155C17.0527 5.48173 17.4104 5.36182 17.8339 5.36182C18.3029 5.36182 18.6862 5.50779 18.9855 5.80149C19.283 6.09345 19.4326 6.49836 19.4326 7.01276C19.4326 7.43158 19.3669 7.75829 19.2355 7.99811C19.1041 8.23793 18.9125 8.42388 18.6588 8.55596C18.4069 8.68803 18.1313 8.75407 17.8339 8.75407C17.3557 8.75407 16.9688 8.60809 16.6731 8.31787C16.3793 8.02592 16.2314 7.60536 16.2314 7.05794ZM16.8246 7.05968C16.8246 7.47502 16.9195 7.78783 17.1111 7.9929C17.3028 8.1997 17.5437 8.30397 17.8339 8.30397C18.1222 8.30397 18.3613 8.1997 18.5529 7.9929C18.7446 7.78436 18.8395 7.46807 18.8395 7.0423C18.8395 6.64086 18.7427 6.33674 18.5511 6.13168C18.3595 5.92487 18.1204 5.82061 17.8339 5.82061C17.5437 5.82061 17.3028 5.92314 17.1111 6.1282C16.9195 6.33327 16.8246 6.64434 16.8246 7.05968Z" fill="black"/> </symbol>

<symbol id="VtexLogo" xmlns="http://www.w3.org/2000/svg" fill="none" viewBox="0 0 46 16"><path d="M33.3908 5.99083H31.7836V11.4557C31.7836 11.558 31.6952 11.6456 31.592 11.6456H30.3534C30.2502 11.6456 30.1617 11.558 30.1617 11.4557V5.99083H28.5398C28.4956 5.99083 28.4366 5.97622 28.4071 5.94699C28.3776 5.91777 28.3481 5.87394 28.3481 5.81549V4.8511C28.3481 4.80727 28.3629 4.74882 28.4071 4.7196C28.4366 4.69037 28.4956 4.66115 28.5398 4.67576H33.3908C33.494 4.67576 33.5825 4.74882 33.5825 4.8511V5.81549C33.5825 5.91777 33.494 5.99083 33.3908 5.99083Z" fill="#4F4F4F"/><path d="M38.5661 11.6014C37.9321 11.6891 37.2833 11.7329 36.6493 11.7183C35.4255 11.7183 34.3491 11.4115 34.3491 9.70189V6.58956C34.3491 4.87997 35.4402 4.58773 36.664 4.58773C37.298 4.57312 37.9321 4.61695 38.5661 4.70462C38.6988 4.71924 38.7578 4.77768 38.7578 4.89458V5.77129C38.7578 5.87358 38.6693 5.96125 38.5661 5.96125H36.5756C36.1332 5.96125 35.971 6.10737 35.971 6.60417V7.45166H38.4923C38.5956 7.45166 38.684 7.53933 38.684 7.64161V8.53294C38.684 8.63522 38.5956 8.72289 38.4923 8.72289H35.971V9.7165C35.971 10.1987 36.1332 10.3594 36.5756 10.3594H38.5661C38.6693 10.3594 38.7578 10.4471 38.7578 10.5494V11.4261C38.7578 11.5284 38.6988 11.5868 38.5661 11.6014Z" fill="#4F4F4F"/><path d="M45.7026 11.6455H44.1987C44.0955 11.6601 43.9922 11.6016 43.948 11.4993L42.6357 9.45367L41.4562 11.4555C41.3972 11.5724 41.3235 11.6455 41.2203 11.6455H39.8195C39.79 11.6455 39.7458 11.6455 39.7163 11.6162C39.6868 11.587 39.6721 11.5578 39.6721 11.5139C39.6721 11.4847 39.6868 11.4701 39.6868 11.4555L41.7363 8.06555L39.6573 4.85094C39.6426 4.83632 39.6426 4.8071 39.6426 4.79249C39.6426 4.71943 39.7163 4.66098 39.79 4.67559H41.3382C41.4414 4.67559 41.5151 4.76327 41.5741 4.85094L42.7832 6.75048L43.9627 4.85094C44.007 4.74865 44.0955 4.69021 44.1987 4.67559H45.5994C45.6731 4.67559 45.7468 4.71943 45.7468 4.79249C45.7468 4.8071 45.7321 4.83632 45.7321 4.85094L43.6679 8.09477L45.8206 11.4555C45.8353 11.4847 45.8501 11.5139 45.8501 11.5432C45.8353 11.6016 45.7763 11.6455 45.7026 11.6455Z" fill="#4F4F4F"/><path d="M26.0922 4.69043C26.0185 4.69043 25.9595 4.73427 25.9447 4.80732L24.5735 9.84842C24.5587 9.9507 24.5293 9.99454 24.4408 9.99454C24.3523 9.99454 24.3228 9.9507 24.3081 9.84842L22.9368 4.80732C22.9221 4.73427 22.8631 4.69043 22.7894 4.69043H21.4329C21.3887 4.69043 21.3444 4.70504 21.3149 4.74888C21.2854 4.7781 21.2707 4.82194 21.2854 4.86577C21.2854 4.86577 22.9663 10.6521 22.9811 10.7105C23.2022 11.3973 23.7478 11.7333 24.4408 11.7333C25.1043 11.7626 25.7088 11.3388 25.9005 10.7105C25.93 10.6375 27.5666 4.86577 27.5666 4.86577C27.5814 4.82194 27.5666 4.7781 27.5372 4.74888C27.5077 4.71965 27.4634 4.69043 27.4192 4.69043H26.0922Z" fill="#4F4F4F"/><path d="M18.425 0H4.31441C3.79835 0 3.32652 0.277625 3.07586 0.70137C2.81046 1.13973 2.79572 1.68037 3.03163 2.11872L4.44711 4.77808H1.88155C1.55717 4.77808 1.24753 4.93881 1.0706 5.21644C0.893664 5.49406 0.893664 5.84475 1.04111 6.13699L5.58245 14.6411C5.74464 14.9479 6.06902 15.1379 6.40814 15.1379C6.74727 15.1379 7.07165 14.9479 7.23384 14.6411L8.47239 12.3324L10.0206 15.2402C10.2712 15.7078 10.7725 16 11.3033 16C11.8342 16 12.3355 15.7078 12.5861 15.2402L19.6635 2.04566C19.8994 1.60731 19.8847 1.08128 19.6193 0.672146C19.3834 0.248402 18.9116 0 18.425 0ZM12.1143 5.56712L9.01794 11.3242C8.91472 11.5288 8.7083 11.6457 8.47239 11.6457C8.23647 11.6457 8.03005 11.5142 7.92684 11.3242L4.87471 5.62557C4.78624 5.45023 4.78624 5.24566 4.88945 5.07032C4.99266 4.89498 5.18434 4.79269 5.37602 4.79269H11.6277C11.8194 4.79269 11.9963 4.88036 12.0848 5.0411C12.2028 5.20183 12.2028 5.40639 12.1143 5.56712Z" fill="#4F4F4F"/> </symbol>
<symbol id="M3Logo" xmlns="http://www.w3.org/2000/svg" fill="none" viewBox="0 0 29 16"><path d="M17.0306 5.35292C16.5832 4.75951 16.0212 4.26601 15.3793 3.90293C14.7375 3.53986 14.0295 3.31491 13.2991 3.24199C12.5687 3.16908 11.8314 3.24975 11.1327 3.47901C10.4341 3.70828 9.78893 4.08127 9.23719 4.57494L8.76053 4.20539C5.48585 1.85199 0.900357 3.85044 0.471361 7.88137C0.340858 9.82333 0.307448 11.7708 0.371262 13.7162C0.360734 13.9659 0.40062 14.2151 0.488442 14.4483C0.576265 14.6816 0.71015 14.894 0.881788 15.0723C1.05343 15.2505 1.25915 15.3909 1.4862 15.4847C1.71325 15.5785 1.95677 15.6237 2.20165 15.6174C2.44131 15.6164 2.67828 15.5659 2.89833 15.4691C3.11838 15.3722 3.31697 15.231 3.48215 15.0538C3.64733 14.8767 3.77571 14.6673 3.85955 14.4383C3.9434 14.2093 3.98099 13.9653 3.97007 13.7211C3.97007 12.3207 3.97007 10.9204 3.97007 9.51513C3.96621 9.09854 3.9949 8.6823 4.05587 8.27036C4.13275 7.84874 4.36328 7.47245 4.70108 7.21716C5.03889 6.96187 5.45893 6.84652 5.87672 6.8943C6.28512 6.92571 6.66826 7.10799 6.95433 7.40697C7.2404 7.70595 7.40975 8.1011 7.43064 8.51834C7.45447 9.03376 7.43064 9.54917 7.43064 10.0646C7.43064 11.3191 7.43064 12.5736 7.43064 13.8281C7.42574 14.1919 7.53183 14.5484 7.73422 14.848C7.93661 15.1477 8.22529 15.3758 8.56033 15.5007C9.77582 16.0162 11.0151 15.1118 11.039 13.6871C11.039 12.029 11.039 10.3709 11.0866 8.71284C11.1027 8.31202 11.2228 7.92274 11.4346 7.58476C11.6363 7.28674 11.9286 7.06478 12.2663 6.95316C12.6041 6.84155 12.9684 6.84649 13.3031 6.96724C13.6807 7.07518 14.0107 7.3114 14.2387 7.6368C14.4667 7.96221 14.5789 8.35728 14.5567 8.7566C14.5567 10.4341 14.5567 12.1117 14.5567 13.7892C14.5567 14.0299 14.6032 14.2683 14.6935 14.4907C14.7838 14.7131 14.9162 14.9152 15.0831 15.0854C15.2499 15.2556 15.4481 15.3906 15.6661 15.4828C15.8841 15.5749 16.1178 15.6223 16.3538 15.6223C16.5898 15.6223 16.8234 15.5749 17.0415 15.4828C17.2595 15.3906 17.4576 15.2556 17.6244 15.0854C17.7913 14.9152 17.9237 14.7131 18.014 14.4907C18.1043 14.2683 18.1508 14.0299 18.1508 13.7892C18.1508 12.0728 18.1508 10.3855 18.1508 8.64476C18.154 7.44967 17.7591 6.28893 17.0306 5.35292" fill="#4F4F4F"/><path d="M26.0349 6.32487L25.4676 6.08661C26.0301 5.63927 26.564 5.25514 27.0406 4.81752C27.4641 4.4774 27.8297 4.06832 28.1227 3.60679C28.9806 1.97302 27.7699 0.0718221 25.849 0.0280605C24.0758 0.00374847 22.3074 0.00374847 20.5342 0.00374847C20.317 -0.0115626 20.0991 0.0201443 19.8947 0.0967889C19.6904 0.173434 19.5042 0.293284 19.3485 0.448477C19.1928 0.60367 19.071 0.790699 18.9911 0.997294C18.9112 1.20389 18.875 1.42538 18.8849 1.64724C18.8637 1.87321 18.8909 2.10119 18.9646 2.31538C19.0384 2.52956 19.1569 2.72483 19.312 2.88764C19.467 3.05046 19.655 3.17692 19.8627 3.25828C20.0705 3.33964 20.2931 3.37394 20.5151 3.3588C21.3826 3.3588 22.2502 3.3588 23.1177 3.3588C23.2655 3.40743 23.418 3.40743 23.704 3.40743C22.5266 4.37991 21.4398 5.30376 20.3673 6.21789C19.6762 6.80138 19.4665 7.43836 19.7096 8.16285C19.8387 8.52047 20.0793 8.82497 20.3944 9.02963C20.7096 9.23429 21.0819 9.3278 21.4541 9.29579C22.3741 9.29579 23.2988 9.29579 24.2188 9.29579C24.4251 9.25688 24.6373 9.26476 24.8403 9.31886C25.0433 9.37297 25.2321 9.47198 25.3934 9.60888C25.5547 9.74577 25.6845 9.91719 25.7735 10.111C25.8626 10.3048 25.9088 10.5162 25.9088 10.7302C25.9088 10.9442 25.8626 11.1556 25.7735 11.3494C25.6845 11.5432 25.5547 11.7146 25.3934 11.8515C25.2321 11.9884 25.0433 12.0874 24.8403 12.1415C24.6373 12.1956 24.4251 12.2035 24.2188 12.1646C23.0271 12.1646 21.8355 12.1646 20.6438 12.1646C20.2261 12.1876 19.8329 12.3731 19.5452 12.6829C19.2575 12.9927 19.0971 13.4032 19.0971 13.83C19.0971 14.2567 19.2575 14.6672 19.5452 14.977C19.8329 15.2868 20.2261 15.4723 20.6438 15.4954C21.8879 15.4954 23.1368 15.4954 24.3808 15.4954C25.4737 15.4671 26.5238 15.0565 27.3552 14.3323C28.1866 13.6082 28.7487 12.6145 28.9473 11.5179C29.1056 10.4443 28.9042 9.34753 28.3757 8.40513C27.8472 7.46273 27.0224 6.72978 26.0349 6.32487Z" fill="#4F4F4F"/></symbol>

<symbol id="Pinterest" xmlns="http://www.w3.org/2000/svg" fill="none" viewBox="0 0 24 24"> <path d="M13.6372 0.111996C10.7664 -0.282916 7.84967 0.374216 5.42555 1.96205C3.00144 3.54988 1.23369 5.96118 0.448715 8.75069C-0.336255 11.5402 -0.0854291 14.5195 1.15488 17.1385C2.39519 19.7575 4.54121 21.8393 7.19668 22.9995C7.12486 22.0779 7.19078 21.1506 7.39224 20.2484C7.61421 19.2417 8.9472 13.6938 8.9472 13.6938C8.68176 13.0988 8.54911 12.4532 8.55846 11.8017C8.55846 10.02 9.58669 8.69062 10.8657 8.69062C11.0955 8.68728 11.3233 8.73345 11.5336 8.826C11.7439 8.91855 11.9319 9.0553 12.0846 9.22696C12.2374 9.39863 12.3514 9.60117 12.4189 9.82083C12.4864 10.0405 12.5058 10.2721 12.4758 10.4999C12.4758 11.5798 11.7823 13.2139 11.42 14.7473C11.3484 15.0285 11.3438 15.3226 11.4067 15.6059C11.4696 15.8891 11.5982 16.1537 11.7821 16.3782C11.9659 16.6027 12.2 16.7809 12.4653 16.8983C12.7307 17.0158 13.0199 17.0693 13.3097 17.0545C15.5869 17.0545 17.1131 14.1378 17.1131 10.6943C17.1131 8.05472 15.365 6.07744 12.1423 6.07744C11.3713 6.04748 10.6022 6.17453 9.88176 6.45089C9.16134 6.72724 8.5046 7.14712 7.95141 7.68505C7.39823 8.22297 6.96014 8.86772 6.66375 9.58013C6.36736 10.2925 6.21884 11.0578 6.22723 11.8293C6.19288 12.6852 6.469 13.5246 7.00471 14.1929C7.10481 14.2677 7.1779 14.3729 7.21296 14.4928C7.24802 14.6127 7.24315 14.7408 7.19907 14.8576C7.14388 15.0784 7.00471 15.6051 6.94951 15.7983C6.93803 15.8638 6.91133 15.9257 6.87155 15.979C6.83178 16.0323 6.78004 16.0755 6.72051 16.1052C6.66098 16.1348 6.59531 16.1501 6.52881 16.1497C6.4623 16.1493 6.39681 16.1333 6.33761 16.103C4.67708 15.4383 3.8948 13.611 3.8948 11.5246C3.8948 8.10872 6.75515 4.01977 12.4782 4.01977C17.0327 4.01977 20.061 7.35164 20.061 10.9151C20.061 15.6051 17.449 19.1314 13.5893 19.1314C13.0124 19.1498 12.4402 19.0225 11.9255 18.7612C11.4109 18.4999 10.9704 18.113 10.6449 17.6364C10.6449 17.6364 9.95143 20.4151 9.81466 20.9407C9.53545 21.8486 9.12346 22.7101 8.59205 23.4975C9.69947 23.8334 10.8501 24.0014 12.0067 23.9966C13.5827 23.9978 15.1436 23.6882 16.5998 23.0854C18.056 22.4826 19.379 21.5985 20.493 20.4837C21.6071 19.3688 22.4903 18.0452 23.092 16.5886C23.6938 15.132 24.0024 13.5709 24 11.9949C23.9985 9.09735 22.9487 6.2982 21.0444 4.11429C19.1401 1.93038 16.51 0.509209 13.6396 0.113195L13.6372 0.111996Z" fill="#171A1C" /></symbol>
<symbol id="Twitter" xmlns="http://www.w3.org/2000/svg" fill="none" viewBox="0 0 25 22"> <path fillRule="evenodd" clipRule="evenodd" d="M22.3622 5.78508C22.3713 6.01826 22.3743 6.25134 22.3743 6.48452C22.3743 13.5541 17.4012 21.7156 8.30706 21.7156C5.51351 21.7156 2.91591 20.8252 0.727295 19.3095C1.11417 19.3519 1.50708 19.3838 1.90602 19.3838C4.22225 19.3838 6.3556 18.5251 8.04781 17.0836C5.88432 17.0518 4.05746 15.4938 3.4274 13.3739C3.72987 13.4375 4.04136 13.4694 4.35991 13.4694C4.80909 13.4694 5.2452 13.4059 5.66323 13.2787C3.39924 12.7912 1.69399 10.629 1.69399 8.03221C1.69399 8.00041 1.69399 7.98975 1.69399 7.96855C2.36123 8.36072 3.12492 8.60438 3.93585 8.63617C2.60741 7.67165 1.73416 6.02884 1.73416 4.17399C1.73416 3.19887 1.97734 2.27671 2.40542 1.48178C4.84324 4.7251 8.48795 6.85555 12.5969 7.07814C12.5125 6.68597 12.4693 6.27271 12.4693 5.85934C12.4693 2.90219 14.683 0.506744 17.4142 0.506744C18.8361 0.506744 20.1204 1.15338 21.0217 2.19209C22.1502 1.95891 23.2073 1.51378 24.164 0.899035C23.7932 2.14973 23.0104 3.19882 21.9874 3.85597C22.9883 3.72878 23.9429 3.44282 24.8282 3.01886C24.164 4.08937 23.3279 5.03254 22.3622 5.78508Z" fill="#171A1C" /> </symbol>
<symbol id="Facebook" xmlns="http://www.w3.org/2000/svg" fill="none" viewBox="0 0 7 14" ><path d="M5.35899 2.93894H6.53001V0.899407C6.32799 0.871615 5.63318 0.809082 4.82399 0.809082C3.1356 0.809082 1.97901 1.87107 1.97901 3.82296V5.61931H0.115845V7.89936H1.97901V13.6364H4.26333V7.89989H6.05113L6.33493 5.61984H4.2628V4.04904C4.26333 3.39004 4.44077 2.93894 5.35899 2.93894V2.93894Z" fill="#616161"/></symbol>
<symbol id="Youtube" xmlns="http://www.w3.org/2000/svg" fill="none" viewBox="0 0 15 15" > <path d="M14.0738 3.59623L14.0917 3.71331C13.9185 3.09864 13.4508 2.62435 12.8564 2.45171L12.8439 2.44872C11.7262 2.14527 7.22878 2.14527 7.22878 2.14527C7.22878 2.14527 2.74269 2.1393 1.6137 2.44872C1.00799 2.62435 0.539666 3.09864 0.369422 3.70077L0.366435 3.71331C-0.0511116 5.89423 -0.0540984 8.5148 0.384953 10.8498L0.366435 10.7316C0.539666 11.3462 1.00739 11.8205 1.60175 11.9932L1.6143 11.9961C2.73074 12.3002 7.22937 12.3002 7.22937 12.3002C7.22937 12.3002 11.7149 12.3002 12.8444 11.9961C13.4508 11.8205 13.9191 11.3462 14.0893 10.7441L14.0923 10.7316C14.2823 9.71726 14.391 8.55004 14.391 7.35773C14.391 7.31413 14.391 7.26992 14.3904 7.22572C14.391 7.1851 14.391 7.13671 14.391 7.08833C14.391 5.89542 14.2823 4.72821 14.0738 3.59623ZM5.79394 9.40365V5.04719L9.53693 7.22871L5.79394 9.40365Z" fill="#616161"/></symbol>
<symbol id="LinkedIn"  xmlns="http://www.w3.org/2000/svg" fill="none" viewBox="0 0 21 21" > <path d="M4.36018 6.29726C5.41753 6.29726 6.27468 5.44011 6.27468 4.38276C6.27468 3.32541 5.41753 2.46826 4.36018 2.46826C3.30283 2.46826 2.44568 3.32541 2.44568 4.38276C2.44568 5.44011 3.30283 6.29726 4.36018 6.29726Z" fill="#616161"/><path d="M8.08238 7.7481V18.3697H11.3803V13.1171C11.3803 11.7311 11.641 10.3888 13.3595 10.3888C15.0544 10.3888 15.0754 11.9735 15.0754 13.2046V18.3706H18.375V12.5457C18.375 9.68447 17.759 7.4856 14.4148 7.4856C12.8091 7.4856 11.7329 8.36672 11.2928 9.2006H11.2481V7.7481H8.08238ZM2.70813 7.7481H6.01125V18.3697H2.70813V7.7481Z" fill="#616161"/></symbol>
<symbol id="Clock" xmlns="http://www.w3.org/2000/svg" viewBox="0 0 256 256" width="256" height="256" fill="none"><path d="M6.91916,3.97641C7.91273,3.56486,9.00603,3.45718,10.0608,3.66698C11.1156,3.87679,12.0844,4.39466,12.8449,5.15511L13.9511,6.26129H12.9492C12.535,6.26129,12.1992,6.59708,12.1992,7.01129C12.1992,7.42551,12.535,7.76129,12.9492,7.76129H15.7617C15.8772,7.76129,15.9866,7.73519,16.0843,7.68857C16.1402,7.66196,16.1934,7.62805,16.2426,7.58682C16.2764,7.55855,16.3077,7.52735,16.3361,7.49362C16.3799,7.44159,16.4155,7.38501,16.4429,7.32558C16.4871,7.22999,16.5117,7.12352,16.5117,7.01129V4.19879C16.5117,3.78458,16.1759,3.44879,15.7617,3.44879C15.3475,3.44879,15.0117,3.78458,15.0117,4.19879V5.20062L13.9056,4.09445C12.9353,3.12422,11.6992,2.46349,10.3534,2.19581C9.0077,1.92812,7.6128,2.06551,6.34513,2.59059C5.07747,3.11567,3.99398,4.00487,3.23168,5.14573C2.46938,6.2866,2.0625,7.6279,2.0625,9C2.0625,10.3721,2.46938,11.7134,3.23168,12.8543C3.99398,13.9951,5.07747,14.8843,6.34513,15.4094C7.6128,15.9345,9.0077,16.0719,10.3534,15.8042C11.6992,15.5365,12.9353,14.8758,13.9056,13.9056C14.1984,13.6127,14.1984,13.1378,13.9056,12.8449C13.6127,12.552,13.1378,12.552,12.8449,12.8449C12.0844,13.6053,11.1156,14.1232,10.0608,14.333C9.00603,14.5428,7.91273,14.4351,6.91916,14.0236C5.92559,13.612,5.07636,12.9151,4.47888,12.0209C3.8814,11.1267,3.5625,10.0754,3.5625,9C3.5625,7.92457,3.8814,6.87328,4.47888,5.97909C5.07636,5.0849,5.92559,4.38796,6.91916,3.97641ZM9.75,5.625C9.75,5.21079,9.41421,4.875,9,4.875C8.58579,4.875,8.25,5.21079,8.25,5.625V8.9856C8.24945,9.01549,8.2507,9.04532,8.25369,9.07491C8.26446,9.18344,8.29835,9.28517,8.35039,9.37509C8.40224,9.46508,8.47337,9.54528,8.56195,9.60885C8.58609,9.62624,8.6113,9.64224,8.63747,9.65672L11.5478,11.337C11.9066,11.5441,12.3652,11.4212,12.5724,11.0625C12.7795,10.7038,12.6566,10.2451,12.2978,10.038L9.75,8.56699V5.625Z" fill="currentColor"/></symbol>
<symbol id="UserCheck" xmlns="http://www.w3.org/2000/svg"  fill="none" viewBox="0 0 39 39"><path d="M26 34.125V30.875C26 29.1511 25.3152 27.4978 24.0962 26.2788C22.8772 25.0598 21.2239 24.375 19.5 24.375H8.125C6.40109 24.375 4.74779 25.0598 3.52881 26.2788C2.30982 27.4978 1.625 29.1511 1.625 30.875V34.125" stroke="#616161" stroke-width="2" stroke-linecap="round" stroke-linejoin="round"/><path d="M27.625 17.875L30.875 21.125L37.375 14.625" stroke="#616161" stroke-width="2" stroke-linecap="round" stroke-linejoin="round"/><path d="M13.8125 17.875C17.4024 17.875 20.3125 14.9649 20.3125 11.375C20.3125 7.78515 17.4024 4.875 13.8125 4.875C10.2226 4.875 7.3125 7.78515 7.3125 11.375C7.3125 14.9649 10.2226 17.875 13.8125 17.875Z" stroke="#616161" stroke-width="2" stroke-linecap="round" stroke-linejoin="round"/></symbol>
<symbol id="DollarSign" xmlns="http://www.w3.org/2000/svg"  fill="none" viewBox="0 0 36 32"><path d="M18 1.33333V30.6667" stroke="#616161" stroke-width="2" stroke-linecap="round" stroke-linejoin="round"/><path d="M25.5 6.66667H14.25C12.8576 6.66667 11.5223 7.15833 10.5377 8.0335C9.55312 8.90867 9 10.0957 9 11.3333C9 12.571 9.55312 13.758 10.5377 14.6332C11.5223 15.5083 12.8576 16 14.25 16H21.75C23.1424 16 24.4777 16.4917 25.4623 17.3668C26.4469 18.242 27 19.429 27 20.6667C27 21.9043 26.4469 23.0913 25.4623 23.9665C24.4777 24.8417 23.1424 25.3333 21.75 25.3333H9" stroke="#616161" stroke-width="2" stroke-linecap="round" stroke-linejoin="round"/></symbol>
<symbol id="Heart" xmlns="http://www.w3.org/2000/svg"  fill="none" viewBox="0 0 35 35"><path d="M30.3917 6.72292C29.6468 5.97771 28.7624 5.38657 27.7891 4.98325C26.8157 4.57993 25.7724 4.37234 24.7188 4.37234C23.6651 4.37234 22.6218 4.57993 21.6485 4.98325C20.6751 5.38657 19.7907 5.97771 19.0458 6.72292L17.5 8.26875L15.9542 6.72292C14.4496 5.21837 12.409 4.37312 10.2813 4.37312C8.1535 4.37312 6.1129 5.21837 4.60834 6.72292C3.10379 8.22747 2.25854 10.2681 2.25854 12.3958C2.25854 14.5236 3.10379 16.5642 4.60834 18.0688L6.15418 19.6146L17.5 30.9604L28.8458 19.6146L30.3917 18.0688C31.1369 17.3239 31.728 16.4395 32.1313 15.4661C32.5347 14.4928 32.7423 13.4495 32.7423 12.3958C32.7423 11.3422 32.5347 10.2989 32.1313 9.32552C31.728 8.35215 31.1369 7.46777 30.3917 6.72292V6.72292Z" stroke="#616161" stroke-width="2" stroke-linecap="round" stroke-linejoin="round"/></symbol>
<symbol id="Tag" xmlns="http://www.w3.org/2000/svg"  fill="none" viewBox="0 0 38 38"><path d="M32.6009 21.2325L21.2484 32.585C20.9543 32.8794 20.605 33.113 20.2206 33.2724C19.8362 33.4317 19.4241 33.5137 19.0079 33.5137C18.5918 33.5137 18.1797 33.4317 17.7953 33.2724C17.4109 33.113 17.0616 32.8794 16.7675 32.585L3.16669 19V3.16667H19L32.6009 16.7675C33.1907 17.3608 33.5217 18.1634 33.5217 19C33.5217 19.8366 33.1907 20.6392 32.6009 21.2325V21.2325Z" stroke="#616161" stroke-width="2" stroke-linecap="round" stroke-linejoin="round"/><path d="M11.0833 11.0833H11.0983" stroke="#616161" stroke-width="2" stroke-linecap="round" stroke-linejoin="round"/></symbol>
<symbol id="FooterLinkArrow" xmlns="http://www.w3.org/2000/svg" fill="none" viewBox="0 0 17 17"><path d="M7.9439 2.58984L14.294 8.0999C14.3515 8.14971 14.3975 8.21128 14.4291 8.28046C14.4607 8.34963 14.4771 8.42478 14.4771 8.50083C14.4771 8.57687 14.4607 8.65202 14.4291 8.7212C14.3975 8.79037 14.3515 8.85195 14.294 8.90175L7.9439 14.4102C7.92476 14.4268 7.90124 14.4376 7.87613 14.4412C7.85103 14.4449 7.82541 14.4413 7.80232 14.4308C7.77923 14.4203 7.75964 14.4034 7.74589 14.382C7.73214 14.3607 7.7248 14.3359 7.72476 14.3105L7.72476 12.9658C7.72476 12.8895 7.75796 12.8164 7.81607 12.7649L12.0046 9.13086L2.6563 9.13086C2.58325 9.13086 2.52349 9.07109 2.52349 8.99804L2.52349 8.00195C2.52349 7.9289 2.58325 7.86914 2.6563 7.86914L12.0046 7.86914L7.81607 4.23505C7.75796 4.18525 7.72476 4.1122 7.72476 4.03418L7.72476 2.68945C7.72476 2.57656 7.85757 2.51513 7.9439 2.58984Z" fill="#EBA47A"/></symbol>
<symbol id="NewsletterArrow" xmlns="http://www.w3.org/2000/svg" fill="none"  viewBox="0 0 13 13"><path d="M5.9439 0.58984L12.294 6.0999C12.3515 6.14971 12.3975 6.21128 12.4291 6.28046C12.4607 6.34963 12.4771 6.42478 12.4771 6.50083C12.4771 6.57687 12.4607 6.65202 12.4291 6.7212C12.3975 6.79037 12.3515 6.85195 12.294 6.90175L5.9439 12.4102C5.92476 12.4268 5.90124 12.4376 5.87613 12.4412C5.85103 12.4449 5.82541 12.4413 5.80232 12.4308C5.77923 12.4203 5.75964 12.4034 5.74589 12.382C5.73214 12.3607 5.7248 12.3359 5.72476 12.3105L5.72476 10.9658C5.72476 10.8895 5.75796 10.8164 5.81607 10.7649L10.0046 7.13086L0.656299 7.13086C0.583252 7.13086 0.523486 7.07109 0.523486 6.99804L0.523486 6.00195C0.523486 5.9289 0.583252 5.86914 0.656299 5.86914L10.0046 5.86914L5.81607 2.23505C5.75796 2.18525 5.72476 2.1122 5.72476 2.03418L5.72476 0.689449C5.72476 0.576558 5.85757 0.515133 5.9439 0.58984Z" fill="#576B62"/></symbol>

<symbol id="CustomProduct" viewBox="0 0 45 44" fill="none" xmlns="http://www.w3.org/2000/svg">
  <path d="M0 26.223C0 33.0201 5.09445 38.548 11.3597 38.548C12.3295 38.548 13.2724 38.4184 14.1617 38.1637L14.7739 37.9894L15.1985 38.4631C18.3356 41.9801 22.7195 43.9955 27.2285 43.9955C31.6973 43.9955 35.8936 42.1097 39.062 38.6821C42.2527 35.2277 44.0089 30.6427 44.0089 25.7627C44.0089 21.7408 41.2517 16.0833 36.0366 9.41133C31.9521 4.19622 27.8988 0.294942 27.8586 0.254723C27.5056 -0.0849076 26.9559 -0.0849076 26.6074 0.254723C26.3794 0.473695 20.9275 5.7469 16.414 12.0748L15.6766 13.107L14.832 12.1641C14.184 11.4446 13.1651 10.3453 11.9854 9.19683C11.6368 8.86167 11.0871 8.86167 10.7386 9.2013C10.6224 9.31302 7.84278 11.9854 5.16596 15.4442C1.78753 19.7969 0 23.5239 0 26.223ZM17.2988 13.9472C20.5164 9.29961 24.4444 5.04083 26.5001 2.92261L27.2285 2.17185L27.9569 2.91814C29.4942 4.49563 33.4491 8.68739 36.8499 13.5361C40.3892 18.5769 42.1857 22.6927 42.1857 25.7717C42.1946 30.3701 40.4205 34.7942 37.3102 37.909C34.544 40.6797 30.9645 42.208 27.224 42.208C23.5462 42.208 20.141 40.8093 17.3792 38.1593L16.4899 37.3057L17.4999 36.5952C20.7577 34.3027 22.7061 30.4282 22.7061 26.2364C22.7061 23.4613 20.847 19.6315 17.3346 15.1582L16.8698 14.5684L17.2988 13.9472ZM10.6269 11.8692L11.3597 11.105L12.0926 11.8737C13.5673 13.4154 20.9141 21.3431 20.9141 26.2275C20.9141 32.0325 16.6285 36.7516 11.3597 36.7516C6.091 36.7516 1.8054 32.0325 1.8054 26.2275C1.80093 21.3163 9.15214 13.4065 10.6269 11.8692Z" fill="#F07B36"/>
  <path d="M37.2342 25.3159C37.2208 24.8154 36.8231 24.4311 36.3315 24.4311C36.0902 24.4356 35.8534 24.5339 35.6835 24.7082C35.5137 24.8824 35.4243 25.1104 35.4288 25.3517V25.3606C35.4288 25.5349 35.402 29.6864 32.2381 33.114C31.8984 33.476 31.9297 34.048 32.3051 34.4144C32.4526 34.5574 32.6179 34.62 32.8369 34.62C33.1676 34.6111 33.4983 34.4144 33.5743 34.3385C37.3593 30.2271 37.2342 25.3651 37.2342 25.3159Z" fill="#F07B36"/>
</symbol>
<symbol id="FullCare" viewBox="0 0 45 44" fill="none" xmlns="http://www.w3.org/2000/svg">
  <path d="M35.4515 38.0376C39.2409 34.2392 41.3196 29.1927 41.3107 23.8273L41.2927 11.211C41.2972 10.9955 41.1939 10.762 41.0188 10.5914C40.8527 10.4298 40.6417 10.3445 40.4351 10.349L28.7976 10.3669L24.2494 0.507347C24.1507 0.309796 23.8813 0 23.4727 0C23.356 0 23.2258 0.0269388 23.0911 0.0853061L11.6555 5.38327C6.78861 7.63714 3.08902 11.6555 1.23922 16.6931C-0.610576 21.7306 -0.386086 27.1857 1.87228 32.0527L7.87963 43.5286C8.00983 43.771 8.37351 44.0943 8.84044 43.9776L8.9482 43.9641L21.2637 43.9461C26.6245 43.9371 31.6666 41.8404 35.4515 38.0376ZM23.5535 3.13837L26.8984 10.3849L26.2564 10.4343C24.5502 10.569 22.8711 10.9147 21.2592 11.4714L20.3613 11.7812L23.5535 3.13837ZM7.76289 30.4857L7.77636 39.5865L3.44371 31.3118C1.38738 26.8535 1.18534 21.8788 2.86902 17.2902C4.55718 12.6882 7.938 9.02 12.3829 6.95918L21.9192 2.54122L18.1074 12.8767L17.9637 12.9576C16.3833 13.8555 14.9196 14.969 13.6221 16.271C9.83269 20.0739 7.75391 25.1204 7.76289 30.4857ZM9.48697 35.8151C9.39718 28.5147 9.32983 23.2392 14.8523 17.5102C20.5768 11.8845 26.1845 11.9743 32.6768 12.0865C34.1494 12.109 35.6715 12.1359 37.2384 12.091L38.3609 12.0596L9.50493 41.0412L9.51391 39.9412C9.52289 38.482 9.50493 37.1261 9.48697 35.8151ZM10.7755 42.222L39.5641 13.3167L39.5821 23.8273C39.5956 33.9429 31.3792 42.1906 21.2592 42.2041L10.7755 42.222Z" fill="#F07B36"/>
</symbol>
</svg>
