<svg width="38" height="38" viewBox="0 0 38 38" fill="none" xmlns="http://www.w3.org/2000/svg">
<circle r="19" transform="matrix(-1 0 0 1 19 19)" fill="white"/>
<path d="M18.9439 13.5898L25.294 19.0999C25.3515 19.1497 25.3975 19.2113 25.4291 19.2805C25.4607 19.3496 25.4771 19.4248 25.4771 19.5008C25.4771 19.5769 25.4607 19.652 25.4291 19.7212C25.3975 19.7904 25.3515 19.8519 25.294 19.9018L18.9439 25.4102C18.9248 25.4268 18.9012 25.4376 18.8761 25.4412C18.851 25.4449 18.8254 25.4413 18.8023 25.4308C18.7792 25.4203 18.7596 25.4034 18.7459 25.382C18.7321 25.3607 18.7248 25.3359 18.7248 25.3105L18.7248 23.9658C18.7248 23.8895 18.758 23.8164 18.8161 23.7649L23.0046 20.1309L13.6563 20.1309C13.5833 20.1309 13.5235 20.0711 13.5235 19.998L13.5235 19.0019C13.5235 18.9289 13.5833 18.8691 13.6563 18.8691L23.0046 18.8691L18.8161 15.2351C18.758 15.1852 18.7248 15.1122 18.7248 15.0342L18.7248 13.6894C18.7248 13.5766 18.8576 13.5151 18.9439 13.5898Z" fill="#7C7E80"/>
</svg>
